<?xml version="1.0" standalone="no"?>
<!DOCTYPE svg PUBLIC "-//W3C//DTD SVG 20010904//EN"
 "http://www.w3.org/TR/2001/REC-SVG-20010904/DTD/svg10.dtd">
<svg version="1.0" xmlns="http://www.w3.org/2000/svg"
 width="512.000000pt" height="512.000000pt" viewBox="0 0 512.000000 512.000000"
 preserveAspectRatio="xMidYMid meet">
<metadata>
Created by potrace 1.14, written by Peter Selinger 2001-2017
</metadata>
<g transform="translate(0.000000,512.000000) scale(0.100000,-0.100000)"
fill="#000000" stroke="none">
<path d="M1268 4096 c-23 -11 -51 -34 -62 -49 -21 -28 -21 -30 -21 -1486 l0
-1458 28 -37 c35 -45 67 -59 130 -58 59 1 109 32 134 82 16 32 17 138 18 1455
0 781 -3 1436 -8 1455 -23 96 -129 143 -219 96z"/>
<path d="M3734 4108 c-43 -11 -92 -64 -101 -107 -4 -20 -7 -676 -7 -1457 -1
-1515 -3 -1444 44 -1495 23 -25 81 -46 120 -43 55 4 86 20 117 60 l28 37 3
1438 c2 1136 0 1444 -10 1474 -25 74 -111 116 -194 93z"/>
<path d="M774 3642 c-17 -11 -42 -35 -55 -54 l-24 -33 0 -985 c-1 -970 0 -985
20 -1024 26 -52 62 -77 119 -83 62 -7 119 18 149 66 l22 36 3 980 c3 1083 6
1033 -60 1084 -43 34 -130 40 -174 13z"/>
<path d="M1747 3638 c-23 -14 -45 -38 -57 -64 -20 -40 -20 -57 -18 -1025 3
-948 4 -985 22 -1016 39 -64 139 -92 206 -58 16 8 42 31 57 52 l28 36 0 987
c0 946 -1 987 -19 1028 -34 75 -141 105 -219 60z"/>
<path d="M3215 3642 c-42 -27 -62 -52 -72 -92 -5 -20 -9 -460 -8 -1011 l0
-976 28 -36 c15 -21 41 -44 57 -52 66 -34 167 -7 205 57 20 32 20 53 23 1013
3 1083 6 1033 -60 1084 -42 34 -130 40 -173 13z"/>
<path d="M4190 3638 c-18 -13 -43 -36 -54 -51 -21 -28 -21 -32 -24 -1014 l-2
-986 21 -44 c28 -58 83 -87 152 -80 55 5 93 29 122 78 20 33 20 52 20 1019 0
976 0 985 -21 1020 -46 78 -145 105 -214 58z"/>
<path d="M2754 3408 c-40 -10 -91 -67 -99 -110 -3 -18 -5 -362 -3 -765 3 -721
3 -732 24 -759 32 -44 66 -64 109 -65 68 -3 83 0 115 27 66 56 63 13 63 814 0
543 -3 735 -12 762 -13 40 -71 97 -99 99 -9 1 -28 2 -42 3 -14 1 -39 -1 -56
-6z"/>
<path d="M288 3187 c-25 -13 -51 -37 -63 -57 -19 -34 -20 -51 -20 -570 0 -520
1 -536 20 -570 59 -100 211 -100 269 0 20 34 21 49 22 563 1 518 1 530 -20
570 -39 77 -128 104 -208 64z"/>
<path d="M4720 3203 c-40 -8 -81 -43 -100 -87 -16 -38 -18 -85 -16 -566 1
-564 1 -556 52 -601 52 -46 150 -46 204 0 55 47 56 52 55 623 0 506 -1 524
-20 558 -12 21 -39 44 -65 58 -43 22 -60 24 -110 15z"/>
<path d="M2266 3169 c-35 -10 -72 -43 -93 -84 -14 -26 -16 -95 -16 -520 1
-545 0 -539 67 -590 30 -23 47 -28 91 -28 44 0 61 5 91 28 65 50 64 42 64 585
0 397 -3 497 -14 524 -28 67 -114 106 -190 85z"/>
</g>
</svg>
